<svg xmlns="http://www.w3.org/2000/svg" viewBox="0 0 160 120" width="160" height="120">
 <g>
  <rect x="20" y="20" width="8" height="60" rx="4" fill="#8C5A2B" stroke="#130F0A" stroke-width="1.5"/>
  <rect x="132" y="20" width="8" height="60" rx="4" fill="#8C5A2B" stroke="#130F0A" stroke-width="1.5"/>
  <rect x="20" y="20" width="120" height="8" rx="4" fill="#B8863A" stroke="#130F0A" stroke-width="1.5"/>
  <rect x="30" y="60" width="100" height="46" rx="6" fill="#211A12" stroke="#B8863A" stroke-width="2"/>
  <rect x="34" y="64" width="92" height="10" rx="4" fill="#B8863A"/>
  <path d="M64 78 h32 l-4 8 h-8 v10 h-8 v-10 h-8 z" fill="#8b96a3" stroke="#2a2f36" stroke-width="1.5"/>
  <!-- lit gauges -->
  <circle cx="44" cy="88" r="8" fill="#130F0A" stroke="#B8863A" stroke-width="2"/>
  <line x1="44" y1="88" x2="49" y2="83" stroke="#37C7E9" stroke-width="2"/>
  <circle cx="116" cy="88" r="8" fill="#130F0A" stroke="#B8863A" stroke-width="2"/>
  <line x1="116" y1="88" x2="112" y2="84" stroke="#EBB24C" stroke-width="2"/>
  <!-- furnace glow -->
  <rect x="70" y="58" width="20" height="14" rx="3" fill="#EBB24C" stroke="#B8863A" stroke-width="1.5"/>
  <rect x="73" y="60" width="14" height="9" rx="2" fill="#E8C67C"/>
  <circle cx="80" cy="52" r="10" fill="#37C7E9" opacity="0.28"/>
  <circle cx="80" cy="54" r="5" fill="#9CF1FF" opacity="0.5"/>
 </g>
</svg>
