<svg xmlns="http://www.w3.org/2000/svg" viewBox="0 0 48 62" width="48" height="62">
 <g transform="rotate(4 24 40) translate(0 3)" opacity="0.75">
  <rect x="15" y="47" width="7" height="12" rx="2" fill="#3a2c19"/><rect x="26" y="47" width="7" height="12" rx="2" fill="#3a2c19"/>
  <path d="M12 34 q12 -6 24 0 l-2 15 q-10 4 -20 0 z" fill="#4a4f56" stroke="#22262b" stroke-width="1.5"/>
  <path d="M12 34 q12 -6 24 0 l-1 5 q-11 -5 -22 0 z" fill="#6b7278"/>
  <circle cx="12" cy="35" r="6" fill="#6b6259" stroke="#3a352f" stroke-width="1.5"/><circle cx="36" cy="35" r="6" fill="#6b6259" stroke="#3a352f" stroke-width="1.5"/>
  <path d="M15 28 q9 18 18 0 q-2 10 -9 11 q-7 -1 -9 -11z" fill="#8a5a3a"/>
  <circle cx="24" cy="24" r="9" fill="#b09a86"/><circle cx="20.5" cy="23" r="1.3" fill="#241a10"/><circle cx="27.5" cy="23" r="1.3" fill="#241a10"/>
  <path d="M18 27 q6 4 12 0" fill="#8a5a3a"/>
  <path d="M13 20 a11 9 0 0122 0 z" fill="#6b6259" stroke="#3a352f" stroke-width="1.5"/>
  <rect x="14" y="17" width="20" height="3.4" rx="1.6" fill="#2e250f"/>
  <circle cx="19" cy="18.6" r="2.4" fill="#333333"/><circle cx="29" cy="18.6" r="2.4" fill="#333333"/>
  <rect x="33" y="34" width="4" height="16" rx="2" fill="#6b7278" transform="rotate(18 35 42)"/>
  <circle cx="41" cy="49" r="3.4" fill="none" stroke="#6b6259" stroke-width="2.4"/>
 </g>
</svg>
